<svg data-v-423bf9ae="" xmlns="http://www.w3.org/2000/svg" viewBox="0 0 72.8695607625045 60" class="font"><!----><!----><defs data-v-423bf9ae=""><linearGradient data-v-423bf9ae="" gradientTransform="rotate(25)" id="79d1e843-e8fc-4f2a-89be-b798949e74ed" x1="0%" y1="0%" x2="100%" y2="0%"><stop data-v-423bf9ae="" offset="0%" style="stop-color: rgb(81, 164, 251); stop-opacity: 1;"></stop><stop data-v-423bf9ae="" offset="100%" style="stop-color: rgb(81, 164, 251); stop-opacity: 1;"></stop></linearGradient></defs><g data-v-423bf9ae="" id="23dfbe9c-804e-4575-b646-391f11f83301" fill="url(#79d1e843-e8fc-4f2a-89be-b798949e74ed)" transform="matrix(5.797101235611727,0,0,5.797101235611727,-2.434782935713784,-17.101448683063346)"><path d="M0.42 13.29L0.42 2.97L0.91 2.97L0.91 13.29ZM1.74 13.29L1.25 13.29L1.25 2.97L1.74 2.97ZM2.83 13.30L2.83 12.81L4.82 12.81C6.22 12.81 6.85 12.04 6.85 10.40C6.85 9.59 6.69 8.99 6.37 8.58C6.22 8.40 6.01 8.25 5.77 8.13C6.48 7.84 6.85 7.10 6.85 5.88C6.85 4.24 6.22 3.49 4.82 3.49L2.83 3.49L2.83 2.98L4.82 2.98C6.55 2.98 7.35 4.03 7.35 5.88C7.35 6.82 7.15 7.52 6.75 8.01C6.71 8.06 6.68 8.11 6.64 8.15C6.69 8.20 6.73 8.25 6.75 8.27C7.15 8.76 7.35 9.46 7.35 10.40C7.35 12.26 6.55 13.30 4.82 13.30ZM3.32 3.81L3.32 12.47L2.83 12.47L2.83 3.81ZM3.65 7.98L3.65 3.81L4.82 3.81C6.03 3.81 6.52 4.42 6.52 5.88C6.52 7.35 6.01 7.98 4.82 7.98ZM4.14 4.31L4.14 7.48L4.82 7.48C5.11 7.48 5.33 7.45 5.46 7.38C5.59 7.31 5.68 7.24 5.73 7.17C5.92 6.93 6.02 6.51 6.02 5.88C6.02 5.15 5.89 4.76 5.68 4.55C5.46 4.34 5.15 4.31 4.82 4.31ZM3.65 12.47L3.65 8.30L4.82 8.30C6.01 8.30 6.52 8.93 6.52 10.40C6.52 11.84 6.03 12.47 4.82 12.47ZM4.14 8.81L4.14 11.98L4.82 11.98C5.15 11.98 5.46 11.96 5.68 11.75C5.89 11.54 6.02 11.13 6.02 10.40C6.02 9.66 5.88 9.27 5.67 9.04C5.45 8.83 5.15 8.81 4.82 8.81ZM12.99 10.33C12.99 11.26 12.80 11.96 12.40 12.45C12.25 12.63 12.05 12.84 11.75 12.99C11.44 13.16 11.05 13.27 10.54 13.27C9.53 13.27 8.97 12.82 8.68 12.45C8.29 11.96 8.09 11.26 8.09 10.33L8.09 5.88C8.09 4.97 8.29 4.27 8.68 3.77C8.97 3.39 9.53 2.95 10.54 2.95C11.55 2.95 12.11 3.39 12.40 3.77C12.80 4.27 12.99 4.97 12.99 5.88ZM12.50 5.88C12.50 4.30 11.83 3.44 10.54 3.44C9.25 3.44 8.58 4.30 8.58 5.88L8.58 10.33C8.58 11.91 9.27 12.78 10.54 12.78C11.82 12.78 12.50 11.91 12.50 10.33ZM12.17 10.33C12.17 11.75 11.62 12.45 10.54 12.45C9.46 12.45 8.92 11.75 8.92 10.33L8.92 5.88C8.92 5.15 9.06 4.62 9.34 4.28C9.59 3.95 10.00 3.78 10.54 3.78C11.09 3.78 11.49 3.95 11.75 4.28C12.03 4.62 12.17 5.15 12.17 5.88ZM11.68 5.88C11.68 5.08 11.49 4.66 11.26 4.47C11.02 4.27 10.72 4.27 10.54 4.27C10.33 4.27 10.07 4.27 9.83 4.47C9.59 4.66 9.41 5.08 9.41 5.88L9.41 10.33C9.41 11.16 9.59 11.55 9.83 11.75C10.07 11.94 10.33 11.96 10.54 11.96C10.72 11.96 11.02 11.94 11.26 11.75C11.49 11.55 11.68 11.16 11.68 10.33Z"></path></g><!----><!----></svg>